<svg id="Layer_1" data-name="Layer 1" xmlns="http://www.w3.org/2000/svg" viewBox="0 0 397.06 134.69"><defs><style>.cls-1{fill:#231f20;}.cls-2{fill:#ff671d;}.cls-3{fill:#fff;}</style></defs><path class="cls-1" d="M142.51,94.88h-45c2.06,8.43,8.92,14.8,17.83,14.8a17.85,17.85,0,0,0,13.24-5.85l10.87.23A27.48,27.48,0,0,1,115,119c-15.48,0-27.63-13.43-27.63-28.62,0-15.67,12-28.5,27.82-28.5a27.78,27.78,0,0,1,27.64,27.92,45.58,45.58,0,0,1-.3,5.09ZM115.08,71.17c-8.82,0-17,7-17.54,15.87h35.07c-.58-8.91-8.71-15.87-17.53-15.87Z" transform="translate(-0.54 -1.06)"/><path class="cls-1" d="M187.56,117.62V88.12c0-9.21-2.74-17-13.52-17-10,0-14.3,7.74-14.3,16.85v29.6H149.55V63.33h9.5v5.78h.19c3.92-5.19,9.61-7.24,15.88-7.24,7.74,0,15,3,19.2,9.69,2.65,4.12,3.43,9.12,3.43,13.92v32.14Z" transform="translate(-0.54 -1.06)"/><path class="cls-1" d="M251.93,117.62v-7.74h-.2c-4.51,6.26-11.66,9.11-19.2,9.11-16.27,0-28.23-12.15-28.23-28.32s11.77-28.8,28.23-28.8c6.85,0,14.1,2.64,18.42,8.13h.19V45.11h10.19v72.51ZM233.11,71.17c-10.78,0-18.62,8.82-18.62,19.4,0,10.19,8.14,19.11,18.53,19.11a19,19,0,0,0,18.91-19.11c0-10.88-7.74-19.4-18.82-19.4Z" transform="translate(-0.54 -1.06)"/><polygon class="cls-1" points="290.27 134.69 279.69 134.69 287.62 115.48 265.98 62.27 276.94 62.27 292.91 104.41 309.28 62.27 320.25 62.27 290.27 134.69 290.27 134.69"/><path class="cls-1" d="M349.8,119c-16,0-29.3-12.84-29.3-28.91s13.62-28.21,29.3-28.21c15.87,0,29.29,12.34,29.29,28.41,0,15.48-12.84,28.71-29.29,28.71Zm0-47.82a19.26,19.26,0,1,0,19.1,19.11,19.15,19.15,0,0,0-19.1-19.11Z" transform="translate(-0.54 -1.06)"/><polygon class="cls-1" points="386.87 116.56 386.87 44.05 397.06 44.05 397.06 116.56 386.87 116.56 386.87 116.56"/><path class="cls-1" d="M10.61,106.91a15.39,15.39,0,0,0,1.67,4.19,12.38,12.38,0,0,0,2.5,2.89,17.86,17.86,0,0,0,12.15,4.26,27,27,0,0,0,13.33-3.42V105.1a24,24,0,0,1-12,3.73c-5.18,0-7.81-3.15-7.81-9.37V72.9H37.5V63.49H20.41V46.07H10.35V63.49H.54V72.9h9.4V97a48.13,48.13,0,0,0,.67,9.93Z" transform="translate(-0.54 -1.06)"/><path class="cls-1" d="M72.27,72.43c3.15,0,6.62,1.75,10.32,5.22l5.52-9.2c-4.49-4.13-9.94-6-13.13-6h-.69c-3.64,0-9.73,0-14.72,8l-.21.34.06-7.32H48.89v53.82H59.42V89.16a18.83,18.83,0,0,1,3.81-11.75c2.53-3.31,5.58-5,9-5Z" transform="translate(-0.54 -1.06)"/><path class="cls-2" d="M292.19,51a.94.94,0,0,1-1-.75l-2.7-17.09c-.89-5.57,0-10.21,2.9-14s7.14-6,12.55-6.87L374.79,1.07a.93.93,0,0,1,1,.75L381.24,36a.94.94,0,0,1-.75,1l-88.3,14Z" transform="translate(-0.54 -1.06)"/><path class="cls-3" d="M315.91,33a5.43,5.43,0,0,1-4.48,4c-2.86.46-6.12-1.22-6.8-5.36-.6-3.69,1.37-6.66,4.8-7.22a5.3,5.3,0,0,1,5.51,2.45l3.43-.55a9,9,0,0,0-16.81,5.82,8.89,8.89,0,0,0,10.33,7.65,9,9,0,0,0,7.47-7.39l-3.45.56Z" transform="translate(-0.54 -1.06)"/><path class="cls-3" d="M329.12,18.31a9.29,9.29,0,0,0-7.84,10.5,9.44,9.44,0,1,0,7.84-10.5Zm2.52,15.37a6.37,6.37,0,1,1,5.2-7.36,6.37,6.37,0,0,1-5.2,7.36Z" transform="translate(-0.54 -1.06)"/><path class="cls-3" d="M370.22,29.77l-1.7-10.41c-.75-4.57-3.82-6.87-8.22-6.15-2.66.44-4.27,1.61-5.2,3.81l-.07.17-.11-.15c-1.24-1.82-3.87-2.31-5.79-2a5.7,5.7,0,0,0-4.55,3.13l0,0-.2,0L344,16.36l-2.82.46L344,34.06l3.08-.5-1.58-9.63c-.58-3.56.57-5.53,3.54-6a3.77,3.77,0,0,1,3.61,1.13A6.44,6.44,0,0,1,354,22.57l1.57,9.6,3.08-.51L357.09,22c-.4-2.47-.38-5.37,3.39-6,2.76-.45,4.52,1.15,5.09,4.63l1.57,9.6,3.08-.51Z" transform="translate(-0.54 -1.06)"/><path class="cls-3" d="M301,39.91a2.49,2.49,0,1,1-2.48-2.48A2.48,2.48,0,0,1,301,39.91Z" transform="translate(-0.54 -1.06)"/></svg>